<svg data-v-423bf9ae="" xmlns="http://www.w3.org/2000/svg" viewBox="0 0 212.64067865277892 60" class="font"><!----><!----><!----><g data-v-423bf9ae="" id="46cfa84d-0035-45f0-8d7c-766f132d3984" fill="#C9A641" transform="matrix(4.329004138368367,0,0,4.329004138368367,7.2727254490124125,-10.129869550639157)"><path d="M9.98 4.03L9.98 4.03L9.98 4.03Q9.57 5.17 9.21 6.34L9.21 6.34L9.21 6.34Q8.85 7.51 8.57 8.84L8.57 8.84L8.57 8.84Q8.30 10.17 8.13 11.71L8.13 11.71L8.13 11.71Q7.97 13.25 7.96 15.12L7.96 15.12L7.96 15.12Q7.88 15.18 7.72 15.27L7.72 15.27L7.72 15.27Q7.56 15.36 7.37 15.47L7.37 15.47L7.37 15.47Q7.17 15.57 6.96 15.68L6.96 15.68L6.96 15.68Q6.75 15.79 6.55 15.89L6.55 15.89L6.55 15.89Q6.36 16.00 6.20 16.08L6.20 16.08L6.20 16.08Q6.04 16.16 5.96 16.20L5.96 16.20L5.96 16.20Q5.97 15.69 6.03 15.07L6.03 15.07L6.03 15.07Q6.09 14.46 6.20 13.78L6.20 13.78L6.20 13.78Q6.30 13.10 6.44 12.37L6.44 12.37L6.44 12.37Q6.58 11.63 6.75 10.89L6.75 10.89L6.75 10.89Q6.25 11.55 5.81 11.99L5.81 11.99L5.81 11.99Q5.36 12.43 5.01 12.70L5.01 12.70L5.01 12.70Q4.61 13.02 4.26 13.20L4.26 13.20L4.26 13.20Q4.12 13.28 3.91 13.21L3.91 13.21L3.91 13.21Q3.71 13.15 3.50 13.01L3.50 13.01L3.50 13.01Q3.30 12.87 3.13 12.71L3.13 12.71L3.13 12.71Q2.97 12.54 2.90 12.43L2.90 12.43L2.90 12.43Q2.83 12.33 2.75 11.81L2.75 11.81L2.75 11.81Q2.67 11.30 2.64 10.34L2.64 10.34L2.64 10.34Q2.34 10.73 2.00 11.15L2.00 11.15L2.00 11.15Q1.66 11.57 1.31 11.99L1.31 11.99L1.31 11.99Q0.96 12.41 0.62 12.81L0.62 12.81L0.62 12.81Q0.27 13.20-0.02 13.52L-0.02 13.52L-0.02 13.52Q-0.32 13.85-0.56 14.09L-0.56 14.09L-0.56 14.09Q-0.79 14.32-0.92 14.42L-0.92 14.42L-0.92 14.42Q-0.99 14.35-1.09 14.25L-1.09 14.25L-1.09 14.25Q-1.19 14.16-1.30 14.05L-1.30 14.05L-1.30 14.05Q-1.40 13.95-1.50 13.84L-1.50 13.84L-1.50 13.84Q-1.61 13.73-1.68 13.64L-1.68 13.64L-1.68 13.64Q-0.68 12.76 0.34 11.17L0.34 11.17L0.34 11.17Q1.37 9.57 2.30 7.32L2.30 7.32L2.30 7.32Q2.40 7.41 2.49 7.49L2.49 7.49L2.49 7.49Q2.58 7.57 2.66 7.66L2.66 7.66L2.66 7.66Q2.71 6.58 2.83 5.26L2.83 5.26L2.83 5.26Q2.94 3.94 3.15 2.34L3.15 2.34L3.15 2.34Q3.19 2.35 3.31 2.47L3.31 2.47L3.31 2.47Q3.44 2.58 3.61 2.76L3.61 2.76L3.61 2.76Q3.78 2.93 3.97 3.13L3.97 3.13L3.97 3.13Q4.16 3.34 4.34 3.52L4.34 3.52L4.34 3.52Q4.51 3.71 4.64 3.85L4.64 3.85L4.64 3.85Q4.77 3.99 4.82 4.05L4.82 4.05L4.82 4.05Q4.81 4.10 4.76 4.34L4.76 4.34L4.76 4.34Q4.71 4.58 4.65 4.96L4.65 4.96L4.65 4.96Q4.58 5.33 4.50 5.82L4.50 5.82L4.50 5.82Q4.43 6.30 4.37 6.85L4.37 6.85L4.37 6.85Q4.31 7.39 4.26 7.97L4.26 7.97L4.26 7.97Q4.22 8.54 4.21 9.10L4.21 9.10L4.21 9.10Q4.20 9.33 4.20 9.64L4.20 9.64L4.20 9.64Q4.20 9.94 4.20 10.26L4.20 10.26L4.20 10.26Q4.20 10.58 4.21 10.89L4.21 10.89L4.21 10.89Q4.22 11.20 4.24 11.45L4.24 11.45L4.24 11.45Q4.26 11.70 4.30 11.86L4.30 11.86L4.30 11.86Q4.33 12.02 4.40 12.04L4.40 12.04L4.40 12.04Q4.47 12.06 4.76 11.84L4.76 11.84L4.76 11.84Q5.04 11.62 5.45 11.20L5.45 11.20L5.45 11.20Q5.85 10.77 6.33 10.17L6.33 10.17L6.33 10.17Q6.80 9.56 7.25 8.81L7.25 8.81L7.25 8.81Q7.45 8.01 7.66 7.27L7.66 7.27L7.66 7.27Q7.87 6.52 8.06 5.89L8.06 5.89L8.06 5.89Q8.26 5.25 8.43 4.75L8.43 4.75L8.43 4.75Q8.60 4.25 8.74 3.92L8.74 3.92L8.74 3.92Q8.87 3.93 9.05 3.94L9.05 3.94L9.05 3.94Q9.22 3.95 9.40 3.97L9.40 3.97L9.40 3.97Q9.58 3.99 9.73 4.00L9.73 4.00L9.73 4.00Q9.88 4.02 9.98 4.03ZM10.49 12.98L10.49 12.98L10.49 12.98Q10.49 13.19 10.64 13.19L10.64 13.19L10.64 13.19Q10.79 13.19 11.05 12.94L11.05 12.94L11.05 12.94Q11.31 12.69 11.59 12.30L11.59 12.30L11.59 12.30Q11.58 12.23 11.58 12.17L11.58 12.17L11.58 12.17Q11.57 12.11 11.57 12.07L11.57 12.07L11.57 12.07Q11.57 11.93 11.60 11.74L11.60 11.74L11.60 11.74Q11.63 11.55 11.76 11.31L11.76 11.31L11.76 11.31Q11.84 11.13 11.96 10.95L11.96 10.95L11.96 10.95Q12.05 10.79 12.19 10.61L12.19 10.61L12.19 10.61Q12.33 10.43 12.49 10.27L12.49 10.27L12.53 10.23L12.53 10.23Q12.60 10.32 12.71 10.46L12.71 10.46L12.71 10.46Q12.82 10.60 12.94 10.74L12.94 10.74L12.94 10.74Q13.05 10.89 13.14 11.01L13.14 11.01L13.14 11.01Q13.22 11.14 13.24 11.18L13.24 11.18L13.24 11.18Q13.24 11.48 13.14 11.77L13.14 11.77L13.14 11.77Q13.03 12.07 12.85 12.35L12.85 12.35L12.85 12.35Q13.26 12.33 13.61 12.14L13.61 12.14L13.61 12.14Q13.97 11.96 14.35 11.55L14.35 11.55L14.35 11.55Q14.41 11.61 14.51 11.72L14.51 11.72L14.51 11.72Q14.61 11.83 14.67 11.90L14.67 11.90L14.67 11.90Q14.38 12.20 14.11 12.40L14.11 12.40L14.11 12.40Q13.83 12.60 13.55 12.71L13.55 12.71L13.55 12.71Q13.28 12.83 12.99 12.88L12.99 12.88L12.99 12.88Q12.70 12.93 12.40 12.93L12.40 12.93L12.40 12.93Q12.17 13.18 11.90 13.38L11.90 13.38L11.90 13.38Q11.63 13.59 11.36 13.74L11.36 13.74L11.36 13.74Q11.08 13.89 10.81 13.97L10.81 13.97L10.81 13.97Q10.53 14.05 10.29 14.05L10.29 14.05L10.29 14.05Q10.08 14.05 9.86 13.93L9.86 13.93L9.86 13.93Q9.65 13.81 9.47 13.63L9.47 13.63L9.47 13.63Q9.29 13.45 9.17 13.24L9.17 13.24L9.17 13.24Q9.06 13.04 9.06 12.88L9.06 12.88L9.06 12.88Q9.06 12.36 9.20 11.85L9.20 11.85L9.20 11.85Q9.34 11.33 9.64 10.89L9.64 10.89L9.64 10.89Q9.93 10.44 10.39 10.10L10.39 10.10L10.39 10.10Q10.86 9.75 11.49 9.58L11.49 9.58L11.49 9.58Q11.51 9.56 11.56 9.56L11.56 9.56L11.56 9.56Q11.61 9.55 11.65 9.55L11.65 9.55L11.65 9.55Q11.74 9.55 11.85 9.62L11.85 9.62L11.85 9.62Q11.96 9.69 12.05 9.78L12.05 9.78L12.05 9.78Q12.14 9.87 12.20 9.96L12.20 9.96L12.20 9.96Q12.26 10.04 12.26 10.07L12.26 10.07L12.26 10.07Q12.25 10.10 12.16 10.15L12.16 10.15L12.16 10.15Q12.07 10.21 11.92 10.33L11.92 10.33L11.92 10.33Q11.77 10.45 11.57 10.68L11.57 10.68L11.57 10.68Q11.36 10.91 11.12 11.29L11.12 11.29L11.12 11.29Q10.75 11.84 10.62 12.29L10.62 12.29L10.62 12.29Q10.49 12.74 10.49 12.98ZM17.42 12.93L17.42 12.93L17.42 12.93Q17.36 12.93 17.32 12.93L17.32 12.93L17.32 12.93Q17.27 12.93 17.23 12.92L17.23 12.92L17.23 12.92Q17.00 13.16 16.74 13.37L16.74 13.37L16.74 13.37Q16.49 13.58 16.23 13.73L16.23 13.73L16.23 13.73Q15.97 13.88 15.72 13.97L15.72 13.97L15.72 13.97Q15.47 14.05 15.24 14.05L15.24 14.05L15.24 14.05Q15.03 14.05 14.80 13.90L14.80 13.90L14.80 13.90Q14.57 13.75 14.38 13.55L14.38 13.55L14.38 13.55Q14.19 13.34 14.07 13.12L14.07 13.12L14.07 13.12Q13.95 12.90 13.95 12.77L13.95 12.77L13.95 12.77Q13.95 12.45 14.02 11.90L14.02 11.90L14.02 11.90Q14.10 11.36 14.29 10.67L14.29 10.67L14.29 10.67Q14.48 9.97 14.81 9.17L14.81 9.17L14.81 9.17Q15.14 8.36 15.65 7.52L15.65 7.52L15.65 7.52Q16.33 6.41 16.96 5.71L16.96 5.71L16.96 5.71Q17.58 5.02 18.10 4.62L18.10 4.62L18.10 4.62Q18.61 4.22 19.00 4.05L19.00 4.05L19.00 4.05Q19.39 3.88 19.60 3.83L19.60 3.83L19.60 3.83Q19.75 3.83 19.93 3.91L19.93 3.91L19.93 3.91Q20.11 3.99 20.28 4.13L20.28 4.13L20.28 4.13Q20.45 4.26 20.58 4.43L20.58 4.43L20.58 4.43Q20.72 4.59 20.77 4.77L20.77 4.77L20.77 4.77Q20.69 5.25 20.46 5.74L20.46 5.74L20.46 5.74Q20.22 6.23 19.88 6.72L19.88 6.72L19.88 6.72Q19.53 7.22 19.09 7.72L19.09 7.72L19.09 7.72Q18.64 8.23 18.13 8.74L18.13 8.74L18.13 8.74Q17.62 9.25 17.06 9.75L17.06 9.75L17.06 9.75Q16.50 10.26 15.93 10.77L15.93 10.77L15.93 10.77Q15.83 11.11 15.74 11.42L15.74 11.42L15.74 11.42Q15.66 11.74 15.60 12.00L15.60 12.00L15.60 12.00Q15.54 12.27 15.51 12.47L15.51 12.47L15.51 12.47Q15.48 12.67 15.48 12.80L15.48 12.80L15.48 12.80Q15.48 12.99 15.51 13.05L15.51 13.05L15.51 13.05Q15.54 13.12 15.63 13.12L15.63 13.12L15.63 13.12Q15.72 13.12 15.84 13.05L15.84 13.05L15.84 13.05Q15.96 12.97 16.08 12.85L16.08 12.85L16.08 12.85Q16.21 12.73 16.35 12.57L16.35 12.57L16.35 12.57Q16.49 12.41 16.61 12.23L16.61 12.23L16.61 12.23Q16.60 12.18 16.60 12.14L16.60 12.14L16.60 12.14Q16.60 12.10 16.60 12.07L16.60 12.07L16.60 12.07Q16.60 11.81 16.69 11.55L16.69 11.55L16.69 11.55Q16.77 11.30 16.90 11.07L16.90 11.07L16.90 11.07Q17.03 10.85 17.19 10.65L17.19 10.65L17.19 10.65Q17.35 10.45 17.51 10.29L17.51 10.29L17.51 10.29Q17.60 10.36 17.68 10.46L17.68 10.46L17.68 10.46Q17.77 10.56 17.85 10.69L17.85 10.69L17.85 10.69Q17.94 10.83 18.02 10.97L18.02 10.97L18.02 10.97Q18.09 11.12 18.17 11.26L18.17 11.26L18.17 11.26Q18.14 11.52 18.01 11.80L18.01 11.80L18.01 11.80Q17.88 12.08 17.68 12.36L17.68 12.36L17.71 12.36L17.71 12.36Q17.94 12.36 18.16 12.32L18.16 12.32L18.16 12.32Q18.37 12.28 18.57 12.19L18.57 12.19L18.57 12.19Q18.77 12.10 18.97 11.95L18.97 11.95L18.97 11.95Q19.17 11.79 19.37 11.57L19.37 11.57L19.37 11.57Q19.44 11.63 19.54 11.73L19.54 11.73L19.54 11.73Q19.63 11.84 19.70 11.92L19.70 11.92L19.70 11.92Q19.41 12.22 19.13 12.41L19.13 12.41L19.13 12.41Q18.85 12.61 18.57 12.72L18.57 12.72L18.57 12.72Q18.29 12.84 18.01 12.89L18.01 12.89L18.01 12.89Q17.73 12.93 17.42 12.93ZM17.05 7.91L17.05 7.91L17.05 7.91Q16.87 8.24 16.70 8.63L16.70 8.63L16.70 8.63Q16.53 9.02 16.37 9.45L16.37 9.45L16.37 9.45Q17.12 8.72 17.76 8.02L17.76 8.02L17.76 8.02Q18.40 7.31 18.87 6.69L18.87 6.69L18.87 6.69Q19.33 6.08 19.60 5.58L19.60 5.58L19.60 5.58Q19.87 5.09 19.87 4.77L19.87 4.77L19.87 4.77Q19.87 4.68 19.80 4.68L19.80 4.68L19.80 4.68Q19.69 4.68 19.45 4.82L19.45 4.82L19.45 4.82Q19.20 4.97 18.84 5.34L18.84 5.34L18.84 5.34Q18.48 5.70 18.03 6.33L18.03 6.33L18.03 6.33Q17.58 6.95 17.05 7.91ZM19.72 14.05L19.72 14.05L19.72 14.05Q19.62 14.05 19.46 13.98L19.46 13.98L19.46 13.98Q19.30 13.91 19.16 13.81L19.16 13.81L19.16 13.81Q19.02 13.70 18.92 13.57L18.92 13.57L18.92 13.57Q18.81 13.44 18.81 13.32L18.81 13.32L18.81 13.32Q18.88 13.02 19.00 12.63L19.00 12.63L19.00 12.63Q19.11 12.24 19.25 11.83L19.25 11.83L19.25 11.83Q19.38 11.43 19.53 11.04L19.53 11.04L19.53 11.04Q19.67 10.66 19.79 10.36L19.79 10.36L19.79 10.36Q19.91 10.06 20.00 9.87L20.00 9.87L20.00 9.87Q20.09 9.69 20.12 9.69L20.12 9.69L20.12 9.69Q20.16 9.69 20.32 9.78L20.32 9.78L20.32 9.78Q20.49 9.86 20.67 9.99L20.67 9.99L20.67 9.99Q20.85 10.12 20.99 10.26L20.99 10.26L20.99 10.26Q21.14 10.40 21.14 10.50L21.14 10.50L21.14 10.50Q21.14 10.52 21.13 10.55L21.13 10.55L21.13 10.55Q21.12 10.58 21.11 10.63L21.11 10.63L21.11 10.63Q21.05 10.80 20.97 11.03L20.97 11.03L20.97 11.03Q20.88 11.27 20.79 11.52L20.79 11.52L20.79 11.52Q20.69 11.76 20.60 12.01L20.60 12.01L20.60 12.01Q20.50 12.26 20.43 12.48L20.43 12.48L20.43 12.48Q20.35 12.70 20.30 12.87L20.30 12.87L20.30 12.87Q20.25 13.03 20.25 13.10L20.25 13.10L20.25 13.10Q20.25 13.15 20.30 13.15L20.30 13.15L20.30 13.15Q20.37 13.15 20.52 13.06L20.52 13.06L20.52 13.06Q20.67 12.97 20.87 12.82L20.87 12.82L20.87 12.82Q21.06 12.68 21.27 12.51L21.27 12.51L21.27 12.51Q21.49 12.34 21.68 12.17L21.68 12.17L21.68 12.17Q21.88 12.00 22.03 11.87L22.03 11.87L22.03 11.87Q22.19 11.73 22.27 11.66L22.27 11.66L22.27 11.66Q22.33 11.72 22.42 11.82L22.42 11.82L22.42 11.82Q22.50 11.92 22.58 12.00L22.58 12.00L22.58 12.00Q22.43 12.15 22.20 12.36L22.20 12.36L22.20 12.36Q21.98 12.58 21.71 12.80L21.71 12.80L21.71 12.80Q21.45 13.03 21.17 13.25L21.17 13.25L21.17 13.25Q20.88 13.48 20.62 13.66L20.62 13.66L20.62 13.66Q20.35 13.84 20.12 13.95L20.12 13.95L20.12 13.95Q19.89 14.05 19.72 14.05ZM22.43 7.60L22.43 7.60L22.43 7.60Q22.42 7.63 22.38 7.73L22.38 7.73L22.38 7.73Q22.33 7.84 22.27 7.98L22.27 7.98L22.27 7.98Q22.21 8.12 22.13 8.27L22.13 8.27L22.13 8.27Q22.05 8.43 21.98 8.56L21.98 8.56L21.98 8.56Q21.90 8.69 21.83 8.77L21.83 8.77L21.83 8.77Q21.77 8.86 21.72 8.86L21.72 8.86L21.72 8.86Q21.60 8.85 21.43 8.78L21.43 8.78L21.43 8.78Q21.25 8.72 21.09 8.63L21.09 8.63L21.09 8.63Q20.93 8.54 20.82 8.46L20.82 8.46L20.82 8.46Q20.71 8.38 20.71 8.35L20.71 8.35L20.71 8.35Q20.71 8.20 20.79 7.97L20.79 7.97L20.79 7.97Q20.87 7.75 20.98 7.53L20.98 7.53L20.98 7.53Q21.09 7.31 21.20 7.16L21.20 7.16L21.20 7.16Q21.31 7 21.38 7L21.38 7L21.38 7Q21.50 7 21.68 7.08L21.68 7.08L21.68 7.08Q21.85 7.16 22.02 7.26L22.02 7.26L22.02 7.26Q22.19 7.36 22.31 7.46L22.31 7.46L22.31 7.46Q22.43 7.56 22.43 7.60ZM36.09 5.00L36.09 5.00L36.09 5.00Q35.76 4.98 35.42 4.96L35.42 4.96L35.42 4.96Q35.08 4.94 34.69 4.92L34.69 4.92L34.69 4.92Q34.30 4.90 33.83 4.89L33.83 4.89L33.83 4.89Q33.36 4.87 32.77 4.87L32.77 4.87L32.77 4.87Q32.02 4.87 31.32 4.91L31.32 4.91L31.32 4.91Q30.61 4.95 29.92 5.05L29.92 5.05L29.92 5.05Q29.23 5.15 28.54 5.34L28.54 5.34L28.54 5.34Q27.85 5.52 27.13 5.82L27.13 5.82L27.13 5.82Q27.42 6.64 27.60 7.43L27.60 7.43L27.60 7.43Q27.77 8.22 27.87 8.93L27.87 8.93L27.87 8.93Q27.97 9.64 28.01 10.26L28.01 10.26L28.01 10.26Q28.04 10.88 28.04 11.38L28.04 11.38L28.04 11.38Q28.04 11.85 28.02 12.21L28.02 12.21L28.02 12.21Q28 12.57 27.97 12.81L27.97 12.81L27.97 12.81Q27.95 13.10 27.90 13.30L27.90 13.30L27.90 13.30Q28.23 12.52 28.54 11.65L28.54 11.65L28.54 11.65Q28.85 10.78 29.13 9.92L29.13 9.92L29.13 9.92Q29.42 9.06 29.65 8.26L29.65 8.26L29.65 8.26Q29.89 7.46 30.07 6.83L30.07 6.83L30.07 6.83Q30.26 6.19 30.37 5.77L30.37 5.77L30.37 5.77Q30.49 5.34 30.52 5.22L30.52 5.22L30.52 5.22Q30.67 5.35 30.89 5.54L30.89 5.54L30.89 5.54Q31.10 5.73 31.32 5.93L31.32 5.93L31.32 5.93Q31.54 6.14 31.73 6.33L31.73 6.33L31.73 6.33Q31.92 6.51 32.02 6.64L32.02 6.64L32.02 6.64Q31.85 7.27 31.57 8.04L31.57 8.04L31.57 8.04Q31.29 8.80 30.95 9.62L30.95 9.62L30.95 9.62Q30.61 10.43 30.24 11.25L30.24 11.25L30.24 11.25Q29.87 12.07 29.52 12.80L29.52 12.80L29.52 12.80Q29.18 13.53 28.88 14.13L28.88 14.13L28.88 14.13Q28.58 14.73 28.39 15.12L28.39 15.12L28.39 15.12Q28.29 15.02 28.14 14.84L28.14 14.84L28.14 14.84Q27.99 14.66 27.83 14.48L27.83 14.48L27.83 14.48Q27.67 14.30 27.54 14.14L27.54 14.14L27.54 14.14Q27.41 13.99 27.34 13.92L27.34 13.92L27.34 13.92Q27.36 13.84 27.40 13.63L27.40 13.63L27.40 13.63Q27.43 13.43 27.47 13.13L27.47 13.13L27.47 13.13Q27.51 12.82 27.54 12.42L27.54 12.42L27.54 12.42Q27.56 12.02 27.56 11.53L27.56 11.53L27.56 11.53Q27.56 10.96 27.51 10.32L27.51 10.32L27.51 10.32Q27.47 9.67 27.33 8.98L27.33 8.98L27.33 8.98Q27.19 8.28 26.93 7.54L26.93 7.54L26.93 7.54Q26.67 6.80 26.25 6.05L26.25 6.05L26.25 6.05Q26.24 6.05 26.24 6.04L26.24 6.04L26.24 6.04Q26.24 6.04 26.24 6.01L26.24 6.01L26.24 6.01Q26.24 5.94 26.28 5.82L26.28 5.82L26.28 5.82Q26.33 5.70 26.41 5.56L26.41 5.56L26.41 5.56Q26.49 5.42 26.58 5.28L26.58 5.28L26.58 5.28Q26.67 5.14 26.76 5.04L26.76 5.04L26.76 5.04Q26.79 5.00 27.08 4.84L27.08 4.84L27.08 4.84Q27.38 4.69 27.89 4.48L27.89 4.48L27.89 4.48Q28.41 4.27 29.12 4.03L29.12 4.03L29.12 4.03Q29.84 3.79 30.71 3.59L30.71 3.59L30.71 3.59Q31.58 3.38 32.58 3.25L32.58 3.25L32.58 3.25Q33.58 3.12 34.67 3.12L34.67 3.12L34.67 3.12Q34.71 3.18 34.82 3.31L34.82 3.31L34.82 3.31Q34.92 3.43 35.06 3.60L35.06 3.60L35.06 3.60Q35.20 3.77 35.35 3.96L35.35 3.96L35.35 3.96Q35.51 4.16 35.65 4.34L35.65 4.34L35.65 4.34Q35.79 4.53 35.91 4.70L35.91 4.70L35.91 4.70Q36.03 4.87 36.09 5.00ZM36.75 11.66L37.08 12.00L37.08 12.00Q36.46 12.61 35.90 13.03L35.90 13.03L35.90 13.03Q35.34 13.45 34.84 13.70L34.84 13.70L34.84 13.70Q34.33 13.95 33.87 14.06L33.87 14.06L33.87 14.06Q33.41 14.17 32.97 14.17L32.97 14.17L32.97 14.17Q32.79 14.17 32.56 14.03L32.56 14.03L32.56 14.03Q32.33 13.90 32.14 13.70L32.14 13.70L32.14 13.70Q31.94 13.51 31.81 13.30L31.81 13.30L31.81 13.30Q31.68 13.08 31.68 12.93L31.68 12.93L31.68 12.93Q31.68 12.37 31.84 11.90L31.84 11.90L31.84 11.90Q31.99 11.44 32.25 11.06L32.25 11.06L32.25 11.06Q32.50 10.68 32.82 10.40L32.82 10.40L32.82 10.40Q33.15 10.11 33.50 9.92L33.50 9.92L33.50 9.92Q33.85 9.73 34.20 9.63L34.20 9.63L34.20 9.63Q34.55 9.54 34.84 9.54L34.84 9.54L34.84 9.54Q35.05 9.54 35.26 9.66L35.26 9.66L35.26 9.66Q35.47 9.78 35.64 9.96L35.64 9.96L35.64 9.96Q35.81 10.14 35.92 10.33L35.92 10.33L35.92 10.33Q36.03 10.53 36.03 10.67L36.03 10.67L36.03 10.67Q36.03 10.90 35.83 11.15L35.83 11.15L35.83 11.15Q35.64 11.39 35.28 11.64L35.28 11.64L35.28 11.64Q34.92 11.89 34.43 12.16L34.43 12.16L34.43 12.16Q33.93 12.42 33.33 12.69L33.33 12.69L33.33 12.69Q33.30 12.85 33.30 13.01L33.30 13.01L33.30 13.01Q33.30 13.22 33.40 13.30L33.40 13.30L33.40 13.30Q33.49 13.37 33.74 13.37L33.74 13.37L33.74 13.37Q34.19 13.37 34.59 13.22L34.59 13.22L34.59 13.22Q34.99 13.07 35.36 12.83L35.36 12.83L35.36 12.83Q35.73 12.59 36.07 12.28L36.07 12.28L36.07 12.28Q36.42 11.98 36.75 11.66L36.75 11.66ZM34.68 10.29L34.68 10.29L34.68 10.29Q34.54 10.29 34.38 10.44L34.38 10.44L34.38 10.44Q34.21 10.58 34.05 10.82L34.05 10.82L34.05 10.82Q33.89 11.06 33.74 11.37L33.74 11.37L33.74 11.37Q33.58 11.68 33.48 12.02L33.48 12.02L33.48 12.02Q33.73 11.85 33.97 11.67L33.97 11.67L33.97 11.67Q34.21 11.48 34.41 11.28L34.41 11.28L34.41 11.28Q34.60 11.08 34.71 10.87L34.71 10.87L34.71 10.87Q34.83 10.66 34.83 10.45L34.83 10.45L34.83 10.45Q34.83 10.38 34.79 10.34L34.79 10.34L34.79 10.34Q34.75 10.29 34.68 10.29ZM37.34 14.18L37.34 14.18L37.34 14.18Q37.21 14.18 37.06 14.11L37.06 14.11L37.06 14.11Q36.90 14.03 36.74 13.89L36.74 13.89L36.74 13.89Q36.57 13.76 36.42 13.58L36.42 13.58L36.42 13.58Q36.26 13.40 36.16 13.20L36.16 13.20L36.16 13.20Q36.12 13.13 36.11 13.03L36.11 13.03L36.11 13.03Q36.09 12.93 36.09 12.78L36.09 12.78L36.09 12.78Q36.09 12.39 36.21 12.00L36.21 12.00L36.21 12.00Q36.33 11.61 36.54 11.25L36.54 11.25L36.54 11.25Q36.76 10.90 37.05 10.59L37.05 10.59L37.05 10.59Q37.35 10.27 37.70 10.05L37.70 10.05L37.70 10.05Q38.05 9.82 38.45 9.69L38.45 9.69L38.45 9.69Q38.84 9.56 39.25 9.56L39.25 9.56L39.25 9.56Q39.31 9.56 39.42 9.63L39.42 9.63L39.42 9.63Q39.53 9.69 39.65 9.80L39.65 9.80L39.65 9.80Q39.77 9.91 39.90 10.05L39.90 10.05L39.90 10.05Q40.02 10.19 40.13 10.33L40.13 10.33L40.13 10.33Q40.23 10.47 40.29 10.60L40.29 10.60L40.29 10.60Q40.36 10.73 40.36 10.83L40.36 10.83L40.36 10.83Q40.33 10.96 40.15 11.12L40.15 11.12L40.15 11.12Q39.97 11.27 39.73 11.41L39.73 11.41L39.73 11.41Q39.48 11.54 39.22 11.63L39.22 11.63L39.22 11.63Q38.95 11.72 38.75 11.72L38.75 11.72L38.75 11.72Q38.64 11.72 38.64 11.65L38.64 11.65L38.64 11.65Q38.64 11.57 38.74 11.43L38.74 11.43L38.74 11.43Q38.84 11.28 38.97 11.10L38.97 11.10L38.97 11.10Q39.09 10.93 39.20 10.76L39.20 10.76L39.20 10.76Q39.30 10.58 39.30 10.46L39.30 10.46L39.30 10.46Q39.30 10.40 39.27 10.36L39.27 10.36L39.27 10.36Q39.24 10.32 39.18 10.32L39.18 10.32L39.18 10.32Q39.03 10.32 38.87 10.45L38.87 10.45L38.87 10.45Q38.71 10.59 38.54 10.81L38.54 10.81L38.54 10.81Q38.38 11.04 38.23 11.33L38.23 11.33L38.23 11.33Q38.08 11.62 37.96 11.93L37.96 11.93L37.96 11.93Q37.85 12.24 37.78 12.54L37.78 12.54L37.78 12.54Q37.71 12.85 37.71 13.10L37.71 13.10L37.71 13.10Q37.71 13.25 37.80 13.31L37.80 13.31L37.80 13.31Q37.89 13.37 38.08 13.37L38.08 13.37L38.08 13.37Q38.53 13.37 38.96 13.22L38.96 13.22L38.96 13.22Q39.39 13.06 39.78 12.82L39.78 12.82L39.78 12.82Q40.17 12.58 40.53 12.28L40.53 12.28L40.53 12.28Q40.89 11.98 41.20 11.68L41.20 11.68L41.20 11.68Q41.28 11.76 41.38 11.85L41.38 11.85L41.38 11.85Q41.49 11.94 41.55 12.00L41.55 12.00L41.55 12.00Q41.13 12.44 40.65 12.84L40.65 12.84L40.65 12.84Q40.17 13.24 39.65 13.54L39.65 13.54L39.65 13.54Q39.12 13.84 38.54 14.01L38.54 14.01L38.54 14.01Q37.97 14.18 37.34 14.18ZM45.04 13.10L45.04 13.10L45.04 13.10Q45.14 13.10 45.31 13.02L45.31 13.02L45.31 13.02Q45.48 12.93 45.69 12.79L45.69 12.79L45.69 12.79Q45.90 12.65 46.12 12.49L46.12 12.49L46.12 12.49Q46.33 12.32 46.54 12.16L46.54 12.16L46.54 12.16Q46.74 12.00 46.89 11.86L46.89 11.86L46.89 11.86Q47.05 11.73 47.13 11.66L47.13 11.66L47.13 11.66Q47.20 11.72 47.28 11.82L47.28 11.82L47.28 11.82Q47.37 11.92 47.44 12.00L47.44 12.00L47.44 12.00Q47.29 12.15 47.07 12.36L47.07 12.36L47.07 12.36Q46.84 12.56 46.58 12.78L46.58 12.78L46.58 12.78Q46.32 13.00 46.04 13.21L46.04 13.21L46.04 13.21Q45.76 13.43 45.49 13.60L45.49 13.60L45.49 13.60Q45.23 13.77 44.99 13.87L44.99 13.87L44.99 13.87Q44.76 13.97 44.60 13.97L44.60 13.97L44.60 13.97Q44.47 13.97 44.30 13.91L44.30 13.91L44.30 13.91Q44.13 13.84 43.97 13.74L43.97 13.74L43.97 13.74Q43.80 13.64 43.69 13.52L43.69 13.52L43.69 13.52Q43.58 13.41 43.58 13.29L43.58 13.29L43.58 13.29Q43.59 13.00 43.69 12.61L43.69 12.61L43.69 12.61Q43.79 12.22 43.93 11.81L43.93 11.81L43.93 11.81Q44.07 11.40 44.23 11.00L44.23 11.00L44.23 11.00Q44.39 10.60 44.53 10.28L44.53 10.28L44.53 10.28Q44.47 10.29 44.32 10.43L44.32 10.43L44.32 10.43Q44.16 10.57 43.94 10.80L43.94 10.80L43.94 10.80Q43.72 11.04 43.45 11.37L43.45 11.37L43.45 11.37Q43.19 11.70 42.93 12.11L42.93 12.11L42.93 12.11Q42.68 12.52 42.44 13.00L42.44 13.00L42.44 13.00Q42.21 13.47 42.05 14L42.05 14L42.05 14Q42.03 14.08 42.00 14.11L42.00 14.11L42.00 14.11Q41.96 14.14 41.87 14.14L41.87 14.14L41.87 14.14Q41.81 14.14 41.68 14.08L41.68 14.08L41.68 14.08Q41.55 14.02 41.41 13.94L41.41 13.94L41.41 13.94Q41.26 13.85 41.13 13.75L41.13 13.75L41.13 13.75Q40.99 13.66 40.91 13.58L40.91 13.58L40.91 13.58Q40.87 13.54 40.84 13.49L40.84 13.49L40.84 13.49Q40.81 13.45 40.81 13.37L40.81 13.37L40.81 13.37Q40.81 12.92 40.96 12.26L40.96 12.26L40.96 12.26Q41.11 11.61 41.37 10.84L41.37 10.84L41.37 10.84Q41.64 10.07 41.99 9.23L41.99 9.23L41.99 9.23Q42.34 8.39 42.74 7.59L42.74 7.59L42.74 7.59Q43.14 6.78 43.58 6.05L43.58 6.05L43.58 6.05Q44.01 5.33 44.43 4.77L44.43 4.77L44.43 4.77Q44.85 4.21 45.24 3.87L45.24 3.87L45.24 3.87Q45.62 3.53 45.94 3.51L45.94 3.51L45.94 3.51Q46.10 3.56 46.26 3.66L46.26 3.66L46.26 3.66Q46.42 3.77 46.57 3.89L46.57 3.89L46.57 3.89Q46.71 4.01 46.82 4.13L46.82 4.13L46.82 4.13Q46.94 4.25 47.00 4.33L47.00 4.33L47.00 4.33Q47.04 4.38 47.05 4.46L47.05 4.46L47.05 4.46Q47.07 4.53 47.07 4.57L47.07 4.57L47.07 4.57Q47.07 4.81 46.93 5.17L46.93 5.17L46.93 5.17Q46.79 5.54 46.55 5.99L46.55 5.99L46.55 5.99Q46.30 6.44 45.95 6.96L45.95 6.96L45.95 6.96Q45.60 7.47 45.17 8.02L45.17 8.02L45.17 8.02Q44.74 8.56 44.25 9.11L44.25 9.11L44.25 9.11Q43.75 9.67 43.21 10.19L43.21 10.19L43.21 10.19Q43.07 10.55 42.96 10.90L42.96 10.90L42.96 10.90Q43.33 10.52 43.64 10.26L43.64 10.26L43.64 10.26Q43.95 10.00 44.19 9.85L44.19 9.85L44.19 9.85Q44.43 9.69 44.59 9.63L44.59 9.63L44.59 9.63Q44.76 9.56 44.85 9.56L44.85 9.56L44.85 9.56Q44.91 9.56 45.07 9.64L45.07 9.64L45.07 9.64Q45.23 9.72 45.40 9.83L45.40 9.83L45.40 9.83Q45.57 9.94 45.71 10.06L45.71 10.06L45.71 10.06Q45.86 10.17 45.89 10.25L45.89 10.25L45.89 10.25Q45.90 10.28 45.89 10.34L45.89 10.34L45.89 10.34Q45.88 10.40 45.86 10.43L45.86 10.43L45.86 10.43Q45.80 10.62 45.72 10.86L45.72 10.86L45.72 10.86Q45.63 11.10 45.53 11.37L45.53 11.37L45.53 11.37Q45.43 11.64 45.34 11.92L45.34 11.92L45.34 11.92Q45.24 12.19 45.17 12.42L45.17 12.42L45.17 12.42Q45.09 12.65 45.04 12.82L45.04 12.82L45.04 12.82Q44.99 13.00 44.99 13.06L44.99 13.06L44.99 13.06Q44.99 13.10 45.04 13.10ZM44.43 7.23L44.43 7.23L44.43 7.23Q44.27 7.57 44.12 7.92L44.12 7.92L44.12 7.92Q43.96 8.26 43.82 8.61L43.82 8.61L43.82 8.61Q44.28 8.03 44.71 7.42L44.71 7.42L44.71 7.42Q45.14 6.82 45.48 6.26L45.48 6.26L45.48 6.26Q45.81 5.70 46.02 5.23L46.02 5.23L46.02 5.23Q46.22 4.76 46.22 4.44L46.22 4.44L46.22 4.44Q46.22 4.29 46.17 4.29L46.17 4.29L46.17 4.29Q46.09 4.29 45.92 4.51L45.92 4.51L45.92 4.51Q45.75 4.73 45.52 5.12L45.52 5.12L45.52 5.12Q45.29 5.51 45.01 6.05L45.01 6.05L45.01 6.05Q44.73 6.59 44.43 7.23Z"></path></g><!----><!----></svg>